<svg id="svg8" xmlns="http://www.w3.org/2000/svg" viewBox="0 0 96.32 176.8"><title>Thorn</title><g id="layer1"><rect id="rect24" x="9.55" y="5.75" width="20.89" height="167.14"/><path id="path50" d="M394,270.54c-.63.13-2.58-4.06-2.58-12.12a46.63,46.63,0,0,1,12.38-31.32h0a48.74,48.74,0,0,1,70.23-.85,48.41,48.41,0,0,1,8.34,11.52,47.58,47.58,0,0,1,4.89,15.12A47.06,47.06,0,0,1,482,282.13a45.55,45.55,0,0,1-22,19.8,44.07,44.07,0,0,1-31.66,1h0c-18.91-6.76-23.17-20.31-22.29-20.84s7,11.1,23.92,15.67h0a39.82,39.82,0,0,0,27.13-2.33,39.21,39.21,0,0,0,17.79-17.07,39.77,39.77,0,0,0,4-24.2,40.48,40.48,0,0,0-4.08-12.44,41,41,0,0,0-6.86-9.53,41.81,41.81,0,0,0-21.7-11.76c-15-3-29.47,3.05-37.92,11.19h0c-18.29,17.48-13.12,38.7-14.37,39Z" transform="translate(-391.44 -169.43)"/><path id="path889" d="M392.48,175.32a10.78,10.78,0,0,1,6.52-1.11c1.68.42,2.85,1.7,4.18,2.73,2.56,2,5.93,2.17,9,2.49a35.71,35.71,0,0,0,7.16.12,13.67,13.67,0,0,0,4.37-1l.55-.26,6.17-5h0l-.51.34a11.68,11.68,0,0,1-4.25,1.18,32.7,32.7,0,0,1-7.2.1c-3-.26-6.22-.35-8.68-2.2-1.41-1.1-2.62-2.49-4.37-3a10.19,10.19,0,0,0-6.76.72l-6.22,4.89Z" transform="translate(-391.44 -169.43)"/><path id="rect904" d="M397.46,341.87h28.41l-1.41,4.36H396.05Z" transform="translate(-391.44 -169.43)"/></g></svg>